<!--
  - Copyright 2014-2024 JetBrains s.r.o. Use of this source code is governed by the Apache 2.0 license.
  -->

<svg width="64" height="64" viewBox="0 0 600 600" fill="none" xmlns="http://www.w3.org/2000/svg">
    <path d="M-0.000274658 51.4286C-0.000274658 23.0254 23.0251 0 51.4283 0H411.429C439.832 0 462.858 23.0254 462.858 51.4286V488.571H51.4284C23.0251 488.571 -0.000274658 465.546 -0.000274658 437.143V51.4286Z" fill="#3863F1"/>
    <path fill-rule="evenodd" clip-rule="evenodd" d="M325.714 111.429C221.569 111.429 137.143 195.855 137.143 300C137.143 404.145 221.569 488.571 325.714 488.571H462.858L462.858 368.571H325.714C287.843 368.571 257.143 337.871 257.143 300C257.143 262.129 287.843 231.429 325.714 231.429H462.858L462.858 111.429H325.714Z" fill="white"/>
    <path fill-rule="evenodd" clip-rule="evenodd" d="M137.143 325.222V488.571H462.858V111.429H548.572C576.975 111.429 600.001 134.454 600.001 162.857V548.571C600.001 576.975 576.975 600 548.572 600H188.572C160.168 600 137.143 576.975 137.143 548.571V488.571V325.715C137.143 325.55 137.143 325.386 137.143 325.222ZM257.143 300C257.143 262.129 287.844 231.428 325.715 231.428H462.858V368.571H325.715C287.844 368.571 257.143 337.87 257.143 300Z" fill="#31BC98"/>
</svg>
